<svg xmlns="http://www.w3.org/2000/svg" xmlns:xlink="http://www.w3.org/1999/xlink" width="9.625" height="9.85" viewBox="0 0 9.625 9.85">
  <defs>
    <style>
      .cls-1 {
        fill: #fff;
        fill-rule: evenodd;
        filter: url(#filter);
      }
    </style>
    <filter id="filter" x="985.938" y="6780.84" width="9.625" height="9.85" filterUnits="userSpaceOnUse">
      <feFlood result="flood" flood-color="#ffe600"/>
      <feComposite result="composite" operator="in" in2="SourceGraphic"/>
      <feBlend result="blend" in2="SourceGraphic"/>
    </filter>
  </defs>
  <path id="Right_Arrow_" data-name="Right Arrow " class="cls-1" d="M986.461,6780.98l-0.369.37a0.526,0.526,0,0,0,0,.74l3.652,3.65-3.651,3.66a0.524,0.524,0,0,0,0,.74l0.369,0.37a0.53,0.53,0,0,0,.739,0l4.387-4.39a0.537,0.537,0,0,0,0-.75l-4.387-4.39A0.53,0.53,0,0,0,986.461,6780.98Zm3.821,0-0.37.37a0.526,0.526,0,0,0,0,.74l3.653,3.65-3.652,3.66a0.512,0.512,0,0,0,0,.73l0.369,0.38a0.53,0.53,0,0,0,.739,0l4.389-4.39a0.533,0.533,0,0,0,.151-0.38,0.521,0.521,0,0,0-.153-0.37l-4.388-4.39A0.529,0.529,0,0,0,990.282,6780.98Z" transform="translate(-985.938 -6780.84)"/>
</svg>
