<svg xmlns="http://www.w3.org/2000/svg" width="44.094" height="41.91" viewBox="0 0 44.094 41.91">
  <defs>
    <style>
      .cls-1 {
        fill: #ffe600;
        fill-rule: evenodd;
      }
    </style>
  </defs>
  <path id="Icon" class="cls-1" d="M877.356,1873.54l-12.985-12.99a2.079,2.079,0,0,0-2.922,0l-0.973.98-7.923-7.92,13.372-13.58H852.187l-6.523,6.69-0.575-.77-3.077.04,0.031,2.95,0.7,0.7-8.872,8.87,6.889,6.89,8.872-8.87,7.923,7.92-0.974.97a2.079,2.079,0,0,0,0,2.93l12.982,12.98a2.079,2.079,0,0,0,2.922,0l4.87-4.87a2.064,2.064,0,0,0,0-2.92" transform="translate(-833.875 -1840.03)"/>
</svg>
