<svg xmlns="http://www.w3.org/2000/svg" width="139" height="41.97" viewBox="0 0 139 41.97">
  <defs>
    <style>
      .cls-1 {
        fill: #707070;
        fill-rule: evenodd;
      }
    </style>
  </defs>
  <path id="Logo_2" data-name="Logo 2" class="cls-1" d="M636.4,6658.95h-6.611l-0.128.64-3.437,17.08a11.627,11.627,0,0,1-.731,2.47,5.134,5.134,0,0,1-1.034,1.54,3.617,3.617,0,0,1-1.37.83,6.317,6.317,0,0,1-1.929.27,5.509,5.509,0,0,1-1.516-.18,1.876,1.876,0,0,1-.811-0.44,1.848,1.848,0,0,1-.435-0.73,4.139,4.139,0,0,1-.16-1.22,11.328,11.328,0,0,1,.222-2.05l3.439-17.25,0.19-.96h-6.591l-0.127.64-3.416,17.12a14.171,14.171,0,0,0-.361,3.05,9.611,9.611,0,0,0,.478,3.11,5.953,5.953,0,0,0,1.65,2.52,7.612,7.612,0,0,0,2.87,1.57,13.6,13.6,0,0,0,3.945.52,15.469,15.469,0,0,0,4.45-.61,10.252,10.252,0,0,0,3.62-1.94,10.772,10.772,0,0,0,2.6-3.29,17.467,17.467,0,0,0,1.549-4.6l3.454-17.13Zm-23.4,0H596.8l-0.128.64-0.828,4.11-0.19.96h9.558l-2.537,12.61a7.685,7.685,0,0,1-.754,2.17,4.562,4.562,0,0,1-1.05,1.31,3.76,3.76,0,0,1-1.214.69,3.83,3.83,0,0,1-1.176.22,4.868,4.868,0,0,1-1.2-.14,5.1,5.1,0,0,1-1.848-.92,6.62,6.62,0,0,1-.725-0.66l-0.633-.66-0.569.72-2.767,3.52-0.421.54,0.463,0.5a8.177,8.177,0,0,0,1.464,1.22,10.629,10.629,0,0,0,1.768.89,10.775,10.775,0,0,0,1.971.55,11.589,11.589,0,0,0,2.131.2,12.148,12.148,0,0,0,4.119-.66,10.558,10.558,0,0,0,3.223-1.8,10.432,10.432,0,0,0,2.3-2.72,10.987,10.987,0,0,0,1.287-3.38l3.756-18.95Zm43.889,7.53a7.493,7.493,0,0,0-.542-2.81,6.44,6.44,0,0,0-1.795-2.47,8.859,8.859,0,0,0-3.139-1.65,15.558,15.558,0,0,0-4.576-.6h-8.151l-0.128.64-5.3,26.47-0.191.95h6.6l0.128-.64,1.553-7.86h2.134a16.01,16.01,0,0,0,5.878-.99,12.049,12.049,0,0,0,4.2-2.67,10.816,10.816,0,0,0,2.5-3.87A12.6,12.6,0,0,0,656.88,6666.48Zm-7.279,2.93a5.466,5.466,0,0,1-1.163,1.76,5.528,5.528,0,0,1-1.825,1.18,6.548,6.548,0,0,1-2.454.44h-1.7l1.639-8.11h2.123a7.181,7.181,0,0,1,2.061.24,3.058,3.058,0,0,1,1.1.58,1.692,1.692,0,0,1,.48.73,3.322,3.322,0,0,1,.154,1.01A5.667,5.667,0,0,1,649.6,6669.41Zm77.614,2.12a8.635,8.635,0,0,0,1.558-2.75,9.948,9.948,0,0,0,.53-3.26,6.436,6.436,0,0,0-.681-3.05,5.532,5.532,0,0,0-1.956-2.08,8.857,8.857,0,0,0-2.892-1.11,17.958,17.958,0,0,0-3.576-.33h-8.23l-0.127.64-5.3,26.47-0.191.95h6.594l0.127-.64,2.037-10.31h0.115a3.973,3.973,0,0,1,1.1.14,1.823,1.823,0,0,1,.731.47,3.574,3.574,0,0,1,.688,1.1,11.861,11.861,0,0,1,.635,2.04l1.618,6.6,0.148,0.6h7.267l-0.28-1.01-1.822-6.57c-0.26-.89-0.515-1.67-0.756-2.33a13.48,13.48,0,0,0-.777-1.75,7.039,7.039,0,0,0-.721-1.06,9.227,9.227,0,0,0,1.687-.73A8.834,8.834,0,0,0,727.215,6671.53Zm-5.11-3.24a3.315,3.315,0,0,1-1.007,1.21,4.763,4.763,0,0,1-1.7.79,9.276,9.276,0,0,1-2.392.29h-0.789l1.174-5.88h1.756a4.907,4.907,0,0,1,2.685.52,1.449,1.449,0,0,1,.625,1.38A3.864,3.864,0,0,1,722.105,6668.29Zm-62.549-3.65-3.361,16.69-1.184,5.68h6.7l1.16-5.68,3.339-16.69,1.231-5.69h-6.757Zm47.663,6.05,0.182-.94h-6.9l-0.18.94-0.788,4.11-0.124.65h6.9l0.125-.65Zm-11.268,4.76,1.11-5.7,1.013-4.99h10.831l0.131-.64,0.867-4.21,0.2-.96H669.221l-0.132.64-0.869,4.15-0.164.89h7.222l-4.25,21.43-0.187.95h6.712l0.127-.64,4.3-21.67h9.463l-4.275,21.36-0.191.96h17.509l0.126-.65,0.829-4.21,0.188-.95H694.8Zm-84.086,25.38,1.209-5.99h1.512a2.667,2.667,0,0,1,1.751.49,1.883,1.883,0,0,1,.59,1.53q0,0.18-.021.45a4.959,4.959,0,0,1-.09.58,5.03,5.03,0,0,1-.182.66,3.791,3.791,0,0,1-.306.67,3.466,3.466,0,0,1-.462.62,2.808,2.808,0,0,1-.642.51,3.09,3.09,0,0,1-.851.35,4.058,4.058,0,0,1-1.092.13h-1.416Zm4.213-3.93a1.774,1.774,0,0,0-.1-0.63,1,1,0,0,0-.3-0.43,1.236,1.236,0,0,0-.5-0.24,2.856,2.856,0,0,0-.695-0.08h-0.733l-0.927,4.61h0.558a2.832,2.832,0,0,0,.807-0.11,2.435,2.435,0,0,0,.631-0.29,2.137,2.137,0,0,0,.471-0.42,2.746,2.746,0,0,0,.338-0.5,3.277,3.277,0,0,0,.228-0.54,4.951,4.951,0,0,0,.137-0.53,4.842,4.842,0,0,0,.065-0.48C616.074,6697.12,616.078,6697,616.078,6696.9Zm8.842,3.93h-3.429l1.205-5.99h3.432l-0.143.68H623.38L623,6697.38h2.5l-0.133.69h-2.5l-0.415,2.07h2.606Zm9.94-5.99-3.26,5.99h-1.1l-0.8-5.99h0.886l0.5,4.04,0.117,1.18,0.628-1.18,2.112-4.04h0.918Zm5.882,5.99h-3.429l1.207-5.99h3.43l-0.141.68H639.2l-0.379,1.86h2.5l-0.132.69h-2.5l-0.415,2.07h2.605Zm8.255,0h-3.468l1.209-5.99h0.83l-1.07,5.3h2.638Zm5.889,0.09a1.743,1.743,0,0,1-1.382-.53,2.185,2.185,0,0,1-.462-1.49,5.631,5.631,0,0,1,.083-0.95,4.985,4.985,0,0,1,.251-0.95,4.546,4.546,0,0,1,.422-0.87,3.18,3.18,0,0,1,.593-0.71,2.574,2.574,0,0,1,.767-0.49,2.424,2.424,0,0,1,.946-0.18,1.739,1.739,0,0,1,1.378.53,2.189,2.189,0,0,1,.461,1.49,5.947,5.947,0,0,1-.082.96,5.69,5.69,0,0,1-.252.95,5.349,5.349,0,0,1-.419.87,3.422,3.422,0,0,1-.593.71,2.817,2.817,0,0,1-.767.48A2.414,2.414,0,0,1,654.886,6700.92Zm2.217-4.09a2.4,2.4,0,0,0-.06-0.56,1.218,1.218,0,0,0-.2-0.43,0.95,0.95,0,0,0-.338-0.28,1.222,1.222,0,0,0-.5-0.1,1.41,1.41,0,0,0-.679.17,2.208,2.208,0,0,0-.539.45,3.019,3.019,0,0,0-.41.64,5.108,5.108,0,0,0-.281.72,5.479,5.479,0,0,0-.163.74,4.855,4.855,0,0,0-.054.66,2.338,2.338,0,0,0,.062.56,1.215,1.215,0,0,0,.2.43,0.909,0.909,0,0,0,.338.28,1.247,1.247,0,0,0,.5.1,1.4,1.4,0,0,0,.678-0.17,1.861,1.861,0,0,0,.542-0.45,2.714,2.714,0,0,0,.409-0.63,5.108,5.108,0,0,0,.281-0.73,5.479,5.479,0,0,0,.163-0.74A4.6,4.6,0,0,0,657.1,6696.83Zm5.253,1.85-0.439,2.15H661.1l1.207-5.99h1.656a3.714,3.714,0,0,1,.767.08,1.962,1.962,0,0,1,.625.27,1.225,1.225,0,0,1,.42.45,1.387,1.387,0,0,1,.151.67,2.149,2.149,0,0,1-.077.57,1.984,1.984,0,0,1-.236.55,2.267,2.267,0,0,1-.389.49,2.216,2.216,0,0,1-.539.4,3.3,3.3,0,0,1-.692.27,3.689,3.689,0,0,1-.841.09h-0.793Zm2.706-2.29a0.749,0.749,0,0,0-.3-0.64,1.483,1.483,0,0,0-.9-0.23h-0.875l-0.494,2.47h0.729a2.489,2.489,0,0,0,.642-0.07,1.964,1.964,0,0,0,.485-0.2,1.728,1.728,0,0,0,.341-0.29,1.418,1.418,0,0,0,.219-0.35,1.361,1.361,0,0,0,.117-0.35A1.876,1.876,0,0,0,665.062,6696.39Zm9.259,4.44h-0.8l0.632-3.74,0.236-1.43-0.452.83-1.36,2.39h-0.567l-0.4-2.3-0.094-.92-0.32,1.5-0.84,3.67h-0.775l1.5-5.99h0.935l0.361,2.25,0.1,0.77,0.419-.77,1.3-2.25h1.042Zm8.37,0h-3.429l1.207-5.99H683.9l-0.143.68h-2.6l-0.379,1.86h2.5l-0.134.69h-2.5l-0.415,2.07h2.606Zm7.108,0h-1.03l-1-3.74-0.278-1.2-0.6,3.02-0.387,1.92h-0.766l1.212-5.99h1.02l0.954,3.54,0.328,1.37,0.644-3.21,0.346-1.7h0.766Zm9.316-5.3h-1.783l-1.066,5.3h-0.829l1.063-5.3h-1.784l0.145-.69h4.4Z" transform="translate(-590.313 -6658.94)"/>
</svg>
